<?xml version="1.0" standalone="no"?>
<!DOCTYPE svg PUBLIC "-//W3C//DTD SVG 1.1//EN" "http://www.w3.org/Graphics/SVG/1.1/DTD/svg11.dtd" >
<svg xmlns="http://www.w3.org/2000/svg">
<metadata>
Created by FontForge 20120731 at Fri Nov 11 10:01:04 2016
 By admin
</metadata>
<defs>
<font id="iconfont" horiz-adv-x="1024" >
  <font-face 
    font-family="iconfont"
    font-weight="500"
    font-stretch="normal"
    units-per-em="1024"
    panose-1="2 0 6 3 0 0 0 0 0 0"
    ascent="896"
    descent="-128"
    x-height="792"
    bbox="0 -212 1024 896"
    underline-thickness="0"
    underline-position="0"
    unicode-range="U+0078-E866"
  />
<missing-glyph 
 />
    <glyph glyph-name=".notdef" 
 />
    <glyph glyph-name=".notdef" 
 />
    <glyph glyph-name=".null" horiz-adv-x="0" 
 />
    <glyph glyph-name="nonmarkingreturn" horiz-adv-x="341" 
 />
    <glyph glyph-name="x" unicode="x" horiz-adv-x="1001" 
d="M281 543q-27 -1 -53 -1h-83q-18 0 -36.5 -6t-32.5 -18.5t-23 -32t-9 -45.5v-76h912v41q0 16 -0.5 30t-0.5 18q0 13 -5 29t-17 29.5t-31.5 22.5t-49.5 9h-133v-97h-438v97zM955 310v-52q0 -23 0.5 -52t0.5 -58t-10.5 -47.5t-26 -30t-33 -16t-31.5 -4.5q-14 -1 -29.5 -0.5
t-29.5 0.5h-32l-45 128h-439l-44 -128h-29h-34q-20 0 -45 1q-25 0 -41 9.5t-25.5 23t-13.5 29.5t-4 30v167h911zM163 247q-12 0 -21 -8.5t-9 -21.5t9 -21.5t21 -8.5q13 0 22 8.5t9 21.5t-9 21.5t-22 8.5zM316 123q-8 -26 -14 -48q-5 -19 -10.5 -37t-7.5 -25t-3 -15t1 -14.5
t9.5 -10.5t21.5 -4h37h67h81h80h64h36q23 0 34 12t2 38q-5 13 -9.5 30.5t-9.5 34.5q-5 19 -11 39h-368zM336 498v228q0 11 2.5 23t10 21.5t20.5 15.5t34 6h188q31 0 51.5 -14.5t20.5 -52.5v-227h-327z" />
    <glyph glyph-name="shezhi" unicode="&#xe600;" 
d="M644 -105v0q-25 0 -41 18q-16 17 -42.5 35t-48.5 18q-23 0 -49.5 -18t-41.5 -34q-16 -18 -41 -18q-11 0 -21 5h-1l-107 60l-1 1q-14 10 -19 27.5t2 33.5q10 23 10 43q0 47 -33 80t-80 33h-4v0q-14 0 -24 11t-13 30q-10 48 -10 85t10 85q3 19 13.5 30t23.5 10h4
q47 0 80 33.5t33 79.5q0 21 -10 44q-7 16 -2 33.5t19 27.5l2 1l112 62h1q10 4 21 4q25 0 41 -16q15 -17 41 -34t48 -17t47.5 17t41.5 33t40 16q12 0 21 -4l2 -1l108 -60l1 -1q15 -10 20 -27.5t-2 -33.5q-10 -23 -10 -44q0 -46 33 -79.5t80 -33.5h3q14 1 24.5 -10t13.5 -30
q9 -48 9 -85t-9 -85q-3 -19 -13.5 -30t-24.5 -11h-3q-47 0 -80 -33t-33 -80q0 -20 10 -43q7 -16 2 -33.5t-20 -27.5l-1 -1l-110 -61l-1 -1q-10 -4 -21 -4zM641 -53q1 -1 3 -1v0l103 57q-13 33 -13 63q0 66 45 113.5t110 50.5q8 45 8 75t-8 75q-65 3 -110 50.5t-45 112.5
q0 31 13 64l-101 56h-1q-2 0 -3 -1q-16 -16 -38 -32q-47 -33 -88 -33t-89 34q-22 16 -37 32q-2 1 -4 1h-1l-105 -57q14 -33 14 -64q0 -65 -45 -112.5t-110 -50.5q-8 -45 -8 -75t8 -75q65 -3 110 -50.5t45 -113.5q0 -30 -14 -63l100 -55v0h3q16 18 38 34q49 35 91 35t90 -36
q23 -16 39 -34zM512 155q-62 0 -106 44t-44 106.5t44 106.5t106 44t106 -44t44 -106.5t-44 -106.5t-106 -44zM512 405q-41 0 -70 -29t-29 -70.5t29 -70.5t70 -29t70 29t29 70.5t-29 70.5t-70 29z" />
    <glyph glyph-name="qunzuyidong" unicode="&#xe660;" 
d="M352 416q66 0 113 47t47 113t-47 113t-113 47t-113 -47t-47 -113t47 -113t113 -47zM704 416q53 0 90.5 37.5t37.5 90.5t-37.5 90.5t-90.5 37.5t-90.5 -37.5t-37.5 -90.5t37.5 -90.5t90.5 -37.5zM950 128q-12 98 -74.5 161t-171.5 63q-63 0 -115 -25q87 -84 103 -224
l4 -31q8 -36 7.5 -84t-14.5 -84h6h9q99 0 157.5 15t76.5 41.5t21.5 62.5t-5.5 77q-3 18 -4 28zM352 352q-123 0 -193.5 -72t-83.5 -184q-1 -11 -4 -32q-11 -47 -7 -88t24.5 -71t86 -47.5t177.5 -17.5t177.5 17.5t86 47.5t24.5 71t-7 87q-3 22 -4 33q-13 112 -83.5 184
t-193.5 72zM523 -96q-17 96 -62 134t-141 38v-74q0 -4 -19 -14q-3 -1 -11 -1t-11 5l-146 135q-9 11 -1 21l144 136q3 3 12.5 4t12.5 -1q19 -9 19 -14v-79q50 0 93 -17.5t75 -53t42 -90.5t-7 -129z" />
    <glyph glyph-name="jiahao" unicode="&#xe601;" 
d="M809 325h-272v272q0 10 -7.5 17.5t-17.5 7.5t-17.5 -7.5t-7.5 -17.5v-272h-272q-10 0 -17.5 -7.5t-7.5 -17.5t7.5 -17.5t17.5 -7.5h272v-272q0 -10 7.5 -17.5t17.5 -7.5t17.5 7.5t7.5 17.5v272h272q10 0 17.5 7.5t7.5 17.5t-7.5 17.5t-17.5 7.5z" />
    <glyph glyph-name="pinglun" unicode="&#xe602;" 
d="M286.5 435q-23.5 0 -40 -17t-16.5 -41t16.5 -41t40 -17t39.5 17t16 41t-16 41t-39.5 17zM511 435q-23 0 -39.5 -17t-16.5 -41t16.5 -41t39.5 -17t39.5 17t16.5 41t-16.5 41t-39.5 17zM735.5 435q-23.5 0 -40 -17t-16.5 -41t16.5 -41t40 -17t40 17t16.5 41t-16.5 41
t-40 17zM848 726h-674q-47 0 -79.5 -34t-32.5 -82v-437q0 -49 34 -86.5t81 -37.5h171l153 -159q10 -11 20 0q90 102 149 159h175q47 0 81 37.5t34 86.5v437q0 48 -33 82t-79 34zM904 173q0 -25 -17.5 -45.5t-41.5 -20.5h-172q-9 0 -19 -5.5t-15 -10.5l-5 -6l-121 -125
l-121 125q-23 22 -43 22h-172q-24 0 -41.5 20.5t-17.5 45.5v437q0 24 16.5 41t39.5 17h674q23 0 39.5 -17t16.5 -41v-437z" />
    <glyph glyph-name="bianxie" unicode="&#xe603;" 
d="M563 -115h-387q-46 0 -78.5 32.5t-32.5 78.5v642q0 46 32.5 78.5t78.5 32.5h543q46 0 78.5 -32.5t32.5 -78.5v-441q0 -12 -8.5 -20.5t-20.5 -8.5t-20.5 8.5t-8.5 20.5v441q0 22 -15.5 37.5t-37.5 15.5h-543q-22 0 -37.5 -15.5t-15.5 -37.5v-642q0 -22 15.5 -37.5
t37.5 -15.5h387q12 0 20.5 -8.5t8.5 -20.5t-8.5 -20.5t-20.5 -8.5zM608 467h-321q-12 0 -20.5 8.5t-8.5 20.5t8.5 20.5t20.5 8.5h321q12 0 20.5 -8.5t8.5 -20.5t-8.5 -20.5t-20.5 -8.5zM608 307h-321q-12 0 -20.5 8.5t-8.5 20.5t8.5 20.5t20.5 8.5h321q12 0 20.5 -8.5
t8.5 -20.5t-8.5 -20.5t-20.5 -8.5zM422 147h-135q-12 0 -20.5 8.5t-8.5 20t8.5 20t20.5 8.5h135q12 0 20.5 -8.5t8.5 -20t-8.5 -20t-20.5 -8.5zM791 -148q-12 0 -20 8l-233 233q-10 10 -8 24l8 68q1 10 8 17t17 8l68 8q14 1 24 -9l232 -232q9 -9 9 -21t-9 -20l-75 -76
q-9 -8 -21 -8zM589 124l202 -203l35 35l-202 203l-32 -4z" />
    <glyph glyph-name="iconfont92" unicode="&#xe785;" 
d="M960 576h-896q-27 0 -45.5 -18.5t-18.5 -45.5v-448q0 -27 18.5 -45.5t45.5 -18.5h896q27 0 45.5 18.5t18.5 45.5v448q0 27 -18.5 45.5t-45.5 18.5zM976 96q0 -27 -10.5 -37.5t-37.5 -10.5h-832q-27 0 -37.5 10.5t-10.5 37.5v384q0 27 10.5 37.5t37.5 10.5h832
q27 0 37.5 -10.5t10.5 -37.5v-384zM416 480h-256q-27 0 -45.5 -18.5t-18.5 -45.5v-256q0 -27 18.5 -45.5t45.5 -18.5h256q27 0 45.5 18.5t18.5 45.5v256q0 27 -18.5 45.5t-45.5 18.5z" />
    <glyph glyph-name="iconfont93" unicode="&#xe786;" 
d="M960 576h-896q-27 0 -45.5 -18.5t-18.5 -45.5v-448q0 -27 18.5 -45.5t45.5 -18.5h896q27 0 45.5 18.5t18.5 45.5v448q0 27 -18.5 45.5t-45.5 18.5zM976 96q0 -27 -10.5 -37.5t-37.5 -10.5h-832q-27 0 -37.5 10.5t-10.5 37.5v384q0 27 10.5 37.5t37.5 10.5h832
q27 0 37.5 -10.5t10.5 -37.5v-384zM864 480h-256q-27 0 -45.5 -18.5t-18.5 -45.5v-256q0 -27 18.5 -45.5t45.5 -18.5h256q27 0 45.5 18.5t18.5 45.5v256q0 27 -18.5 45.5t-45.5 18.5z" />
    <glyph glyph-name="qunzuduoren" unicode="&#xe6d6;" 
d="M647 431q39 31 61.5 76t22.5 96q0 91 -64 155.5t-155 64.5t-155 -64.5t-64 -155.5q0 -51 22.5 -96t61.5 -76q-103 -41 -167 -133.5t-64 -206.5v-73q0 -15 11 -25.5t26 -10.5h658q15 0 26 10.5t11 25.5v73q0 114 -64 206.5t-167 133.5zM511.5 750q60.5 0 103.5 -43
t43 -103.5t-43 -103.5t-103.5 -43t-103 43t-42.5 103.5t42.5 103.5t103 43zM805 55h-586v36q0 121 86 207t207 86t207 -86t86 -207v-36zM267 418l2 7q0 3 1 4q0 4 -1 9v2v2.5t-0.5 1l-0.5 0.5q0 2 -2 5q-3 5 -5 9h-1l-1 1q-4 5 -11 8q-30 13 -47.5 40t-17.5 60q0 38 23.5 68
t60.5 38q15 4 22.5 17t4 27.5t-16.5 22.5t-27 5q-62 -15 -101 -65t-39 -113q0 -70 47 -123q-72 -37 -114.5 -106.5t-42.5 -152.5v-57q0 -15 10.5 -26t26 -11t26 11t10.5 26v57q0 75 46 134.5t120 77.5q20 3 28 21zM867 444q47 53 47 123q0 62 -37.5 111t-97.5 65
q-15 4 -28 -3.5t-17 -22t3.5 -27.5t22.5 -17q36 -10 58.5 -39.5t22.5 -66.5q0 -33 -17.5 -60t-47.5 -40q-7 -3 -12 -8q0 -1 -0.5 -1h-0.5q-2 -3 -5 -9q-2 -4 -2 -5l-0.5 -0.5l-1 -1t0 -2.5l0.5 -2q-1 -5 -1 -9q0 -1 1 -4l2 -7q8 -18 28 -21q73 -18 119.5 -77.5t46.5 -134.5
v-57q0 -15 10.5 -26t25.5 -11t26 11t11 26v57q0 83 -42.5 152.5t-114.5 106.5z" />
    <glyph glyph-name="xiazai" unicode="&#xe617;" 
d="M820 334h-205v411h-206v-411h-205l308 -274zM204 -145h616v68h-616v-68z" />
    <glyph glyph-name="zan" unicode="&#xe604;" horiz-adv-x="1025" 
d="M307 -211h598q28 0 48 20t20 49v85q21 0 36 15t15 36v15v395q0 28 -20 48t-48 20h-268q6 173 -52 255q-22 29 -39 45.5t-27 22t-28 12.5q-28 10 -57.5 -4t-29.5 -41q1 -5 2 -14.5t1.5 -36.5t-2 -51.5t-10 -55.5t-20.5 -53q-27 -45 -68 -79h-290q-28 0 -48 -20t-20 -48
v-546q0 -29 20 -49t48 -20h239v0v0zM307 408v-554h-184q-24 0 -41.5 16t-17.5 38v445q0 23 17.5 39t41.5 16h184v0v0zM772 267q0 -14 10 -24t24 -10h154v-85h-154q-14 0 -24 -10t-10 -24t10 -24.5t24 -10.5h154v-68h-154q-14 0 -24 -10t-10 -24t10 -24t24 -10h103v-35
q0 -22 -19.5 -38.5t-44.5 -16.5h-464v555q29 19 51 40t26 27l14 21q22 33 34.5 84t14.5 85l2 34q0 63 31 25q2 -3 6 -8t14 -26t17.5 -46.5t13.5 -70.5t6 -97q-2 -31 6 -47q6 -12 16.5 -16.5t37.5 -4.5h230q24 0 41.5 -16t17.5 -39v-52h-154q-14 0 -24 -10t-10 -24v0v0v0z
M154 -6q0 -14 10 -24t24 -10t24 10t10 24t-10 24t-24 10t-24 -10t-10 -24v0z" />
    <glyph glyph-name="earth" unicode="&#xe7ca;" 
d="M715 561q-4 7 -13 16t-15 11q-6 0 -7 -2t0.5 -6.5t1.5 -5.5q-10 -7 -10 -8q-1 -1 0 -3.5t4.5 -4.5t7.5 0q5 -1 5.5 -0.5t1.5 -6t4 -11.5q4 -10 12.5 -12t12.5 2q8 6 -5 31zM752 471v0v0zM869 418v0v0zM512 748q-122 0 -225 -60t-163 -163t-60 -225t60 -225t163 -163
t225 -60t225 60t163 163t60 225t-60 225t-163 163t-225 60zM347 -47q-18 10 -22 32q-6 32 1.5 51.5t34.5 37.5q10 6 19.5 20t14.5 19l4 6.5t7.5 10.5t6.5 4q28 6 31 13q3 4 15.5 30.5t16.5 28.5q11 8 17.5 21.5t-0.5 25.5q-7 7 -15 11.5t-19.5 8t-17.5 6.5q-9 5 -20 29
t-16 28q-8 9 -20.5 17.5t-20.5 12.5l-26 13t-23 11q-11 5 -14.5 5t-12.5 -9q-12 -11 -26.5 -2.5t-16.5 23.5q0 1 -1.5 11.5t-2 17t1.5 9.5q8 6 11 9.5t0 5.5t-6 3t-10 3l-7.5 1.5t-5.5 2t-3 3.5q-8 21 10.5 37.5t39.5 18.5q10 1 17.5 -5.5t11.5 -14.5t8 -14.5t8 -5.5
q2 2 3 7.5t1.5 14l0.5 8.5q2 11 6.5 15.5t16.5 8.5q6 3 16.5 7.5t18.5 7t17 4.5q7 2 19.5 3.5t21.5 4.5t16 9q5 2 7.5 1.5t6.5 -3t7 -3.5q10 -2 14.5 9.5t4.5 22.5q0 1 0.5 5t0 6t-1 5t-3 5.5l-5.5 5.5q-13 8 -26.5 4t-24.5 -15t-21 -8.5t-6 20.5q1 6 28 24q4 2 10 -1t11 -2
q6 1 16 -4.5t17 -5.5q9 2 17 12.5t0 26.5h3h3h11q3 -8 -2.5 -25.5t-0.5 -29.5q5 -13 10 -17.5t10.5 -2t9 7t10 13.5t9.5 13q4 3 19 6q5 1 17 24q60 -15 113 -49h-7.5t-5.5 -0.5t-3 -2t-2.5 -4t-0.5 -8.5q1 -26 11 -28q8 -1 14.5 -8t14.5 -8q7 0 8.5 -4t1.5 -11.5t2 -12.5
t-1.5 -10t-10.5 -8t-13.5 -5t-14 -4t-9.5 -2q-20 -7 0 -29q17 -19 31 -16q25 6 25 10l-0.5 4l-1 8t-0.5 8t1 5q6 8 21 -1q10 -6 32 -30t40 -28q1 -1 4.5 -1t7 -0.5t5.5 -2.5q10 -14 8 -16q-1 -1 -6 -1q-6 1 -14.5 1.5t-15 1.5t-12.5 7q-2 1 -6.5 4.5t-6 4.5t-5.5 4t-6.5 4
t-6 2.5t-7 2t-8.5 0.5q-6 0 -23.5 3t-27.5 1q-4 0 -30 -8q-4 -2 -10 -11.5t-10 -10.5q-14 -3 -21.5 -12t-9.5 -17.5t-3.5 -23.5t-3.5 -22q-10 -44 -2 -53q1 -1 9 -8.5t11 -10t10 -9t11.5 -9t11.5 -5.5t14 -4q4 0 17 1.5t23.5 0.5t14.5 -7q2 -4 9.5 -1t8.5 0
q4 -13 -2.5 -31.5t-6.5 -25.5q0 -10 4 -24t2.5 -23t-12.5 -22q-15 -15 -16.5 -48t-7.5 -46q-3 -6 -6 -17t-6.5 -19t-9.5 -11q-40 -26 -85 -41q-81 -27 -166 -17q-44 5 -86 20q-3 1 -10 3.5t-11 4.5q-8 3 -14 6zM263 7q-1 2 -2 3q-11 9 -21 18q-10 11 -19 21v1l-4 4
q-78 94 -87 218t55 230q5 -5 3.5 -25t11.5 -27q4 -3 9.5 -5t7.5 -4.5t1 -8.5q-1 -7 5.5 -13t7.5 -11q2 -8 8 -17t10.5 -14.5t6.5 -15t-5 -18.5q-36 -49 -21 -86q5 -12 25 -32q4 -4 7.5 -7t4.5 -3t2 -3t1 -4.5v-9.5q-1 -4 4.5 -12t4.5 -11q-1 -8 -4 -24t-4 -24q-3 -51 5 -89
t38 -67q-24 14 -46 33q-2 1 -5 3z" />
    <glyph glyph-name="geren" unicode="&#xe662;" 
d="M813 152q-7 7 -16.5 7t-16.5 -7t-7 -17t7 -16q56 -57 95 -137.5t39 -153.5q0 -10 7 -17t17 -7t16.5 7t6.5 17q0 82 -42.5 171.5t-105.5 152.5zM513 795q-117 0 -200 -83t-83 -200q0 -82 43.5 -150.5t114.5 -103.5q-100 -31 -175 -106q-63 -63 -105.5 -152.5t-42.5 -171.5
q0 -10 7 -17t16.5 -7t16.5 7t7 17q0 73 39 153.5t95 137.5q106 106 256 110h11q117 0 200 83t83 200t-83 200t-200 83zM517 276h-4h-11q-94 4 -159.5 72.5t-65.5 163.5q0 97 69.5 166.5t167 69.5t166.5 -69.5t69 -166.5t-68 -166t-164 -70z" />
    <glyph glyph-name="zi" unicode="&#xe64c;" 
d="M357 307h307v-84h-307v84zM357 428h307v-84h-307v84zM839 662q0 29 -11 51q-14 30 -29 40q-18 19 -40 30t-51 11h-392q-29 0 -51 -11q-29 -15 -44 -30q-20 -20 -25 -40q-11 -22 -11 -51v-856l329 194l329 -197zM704 157h-40v33h-307v-29h-41v421h128q8 18 22 69l44 -15
l-22 -54h216v-425zM357 545h307v-84h-307v84z" />
    <glyph glyph-name="wodeguanzhu" unicode="&#xe65e;" 
d="M845 459q0 96 -44.5 172.5t-120 118t-166.5 42.5q-91 0 -168 -44.5t-122 -121.5t-45 -167q0 -129 87 -224q-112 -65 -179 -178.5t-67 -247.5v0h62v0q0 87 34 168q32 77 92 136q47 48 106 78q88 -65 198 -65q118 0 198 65v0q6 5 15.5 12.5t32.5 32.5t40.5 53.5t32 74.5
t14.5 95zM512 187q-55 0 -106 22q-48 20 -86 58q-37 37 -58 86q-21 51 -21 106t21 105q20 49 58 87q38 37 86 58q51 21 106 21t106 -21q48 -20 86 -58q37 -38 58 -87q21 -50 21 -105t-21 -106q-20 -48 -58 -86t-86 -58q-50 -22 -106 -22zM819 -180q-7 3 -18 10t-40 29.5
t-51.5 46t-40.5 59t-18 70t29 60t65 25.5q26 0 45.5 -14.5t28.5 -38.5v0v0q9 24 28.5 38.5t45.5 14.5q36 0 65 -25.5t29 -59.5q0 -26 -9 -51.5t-24 -46t-33 -39.5t-36 -33t-32.5 -24.5t-24 -16t-9.5 -4.5z" />
    <glyph glyph-name="yonghu" unicode="&#xe605;" 
d="M614.5 752q-105.5 0 -180 -74.5t-74.5 -179.5q0 -72 37 -132t98 -93q-127 -39 -207.5 -146.5t-80.5 -243.5q0 -10 7 -17t17 -7t17 7t7 17q0 98 48 180.5t130.5 131t179.5 48.5q4 -1 7 0q104 3 176.5 77t72.5 178q0 105 -74.5 179.5t-180 74.5zM614.5 292
q-85.5 0 -145.5 60.5t-60 145.5t60 145.5t145.5 60.5t146 -60.5t60.5 -145.5t-60.5 -145.5t-146 -60.5zM904 171q-8 8 -18 8t-17 -7.5t-7 -17.5t7 -17q51 -51 78 -116.5t27 -137.5q0 -10 7 -17t17 -7t17.5 7t7.5 17q0 82 -31 156.5t-88 131.5v0zM358 286v0v0q0 10 -7.5 17
t-17.5 7q-66 0 -113 50t-47 121t47 121t113 50q10 0 17.5 7t7.5 17t-7.5 17t-17.5 7q-86 0 -147 -64t-61 -155q0 -59 28 -109.5t75 -79.5q-100 -36 -163 -127t-63 -205q0 -10 7 -17t17 -7t17.5 7t7.5 17q0 125 82.5 213t199.5 88q10 0 17.5 7.5t7.5 17.5v0zM358 286z" />
    <glyph glyph-name="shanchu" unicode="&#xe672;" 
d="M773 516l1 -566q0 -45 -42 -45l-432 1q-43 0 -43 43v567h-67v-567q0 -45 31.5 -76.5t76.5 -31.5h431q45 0 76.5 31.5t31.5 76.5v567h-64zM347 395v-402q0 -4 1 -7h60q1 3 1 7v401q-30 0 -62 1zM618 393v-400q0 -3 1 -6h60v6v400h-61zM891 625h-181v67q1 68 -89 68h-215
q-87 0 -87 -66v-69h-185v-66h757v66v0zM649 625h-270v47q0 11 7 19.5t19 8.5l215 -1q12 0 20 -7.5t8 -18.5l1 -48v0zM485 393v-400q0 -3 1 -6h59q1 3 1 6v400h-61z" />
    <glyph glyph-name="pinglun1" unicode="&#xe606;" 
d="M449 219q119 0 198.5 62.5t77.5 160.5q0 88 -81.5 150t-199.5 62t-201 -62t-83 -150q0 -58 28.5 -110t82.5 -80v-0.5v-0.5q0 -30 -37 -94v0q-1 -3 -1 -6q0 -7 4.5 -11.5t11.5 -4.5h2.5h1.5v0q37 6 86.5 38t63.5 49q14 -3 31 -3h7h8zM385 266l-28 -23q-17 -20 -59 -46
q7 19 10.5 32.5t3.5 18.5l1 4l2 27l-24 12q-43 22 -65 64t-22 87q0 70 70 119t170 49t169 -49t69 -119q0 -78 -66 -129t-166 -51q-20 -1 -41 3zM856 266q0 91 -80 138q-2 -20 -11 -47q27 -19 37.5 -40t10.5 -51q0 -69 -73 -106l-22 -11q3 -56 6 -70q-19 14 -33 28t-19 22
l-5 7l-23 -3l-33 -2q-85 0 -141 44l-62 -1q33 -41 85.5 -63.5t117.5 -22.5h6.5h5.5q15 0 27 2q15 -18 51 -45t67 -32v0h1.5h2.5q5 0 9.5 4t4.5 10q0 2 -2 5v0q-7 13 -15 41t-8 47v1v1q95 48 95 144z" />
    <glyph glyph-name="iconfontjiahao" unicode="&#xe607;" 
d="M453 753v-394h-394q-24 0 -41.5 -17.5t-17.5 -41.5t17.5 -41.5t41.5 -17.5h394v-394q0 -24 17.5 -41.5t41.5 -17.5t41.5 17.5t17.5 41.5v394h394q24 0 41.5 17.5t17.5 41.5t-17.5 41.5t-41.5 17.5h-394v394q0 24 -17.5 41.5t-41.5 17.5t-41.5 -17.5t-17.5 -41.5z" />
    <glyph glyph-name="aiziji" unicode="&#xe614;" 
d="M620 153q-2 2 -3 5l-3.5 3.5l-3 3t-3.5 3t-3.5 2.5t-2.5 2q-2 1 -3.5 2t-3 1.5l-3 1t-3.5 1t-3.5 1l-3 1l-3 1t-2.5 0.5h-1h-2.5t-3.5 0.5t-3.5 0.5t-3 -0.5t-3 -0.5t-3 -0.5t-3 -0.5t-3.5 -0.5t-3.5 -1.5t-3 -1.5t-3 -1.5l-3 -2l-3 -2t-3.5 -2t-3.5 -2.5t-3 -2.5t-3 -3
t-3 -3.5l-3.5 -3.5l-3 -4v0q-1 1 -3 4l-3.5 3.5t-3 3.5t-3 3t-3 2.5t-3.5 2.5t-3.5 2l-3 2l-3 2t-3 1.5t-3 1.5t-3.5 1.5t-3.5 0.5t-3 0.5t-3 0.5t-3 0.5t-3 0.5t-3.5 -0.5t-3.5 -0.5h-2.5h-1q-1 0 -2.5 -0.5l-3 -1t-3.5 -1t-3.5 -1l-3 -1l-3 -1t-3 -1.5t-3.5 -2
q-1 -1 -2.5 -2t-3.5 -2.5t-3.5 -3l-3 -3l-3.5 -3.5q-1 -3 -3 -5q-2 -4 -3 -7q-5 -15 -2 -33q1 -4 2 -7q1 -4 3 -9q2 -3 3 -6q2 -3 4 -5q1 -3 3 -5q1 -2 3 -4t3.5 -4l3 -4t3 -3.5l3 -3l3 -3l3 -3t3.5 -3t3.5 -3t3 -2.5t3.5 -3l2.5 -2.5t3.5 -2.5t3.5 -2.5t3 -2.5l3 -2t3.5 -2
q1 -2 2.5 -3t3.5 -2q1 -1 3 -2t3.5 -2l3 -2l3 -2l3 -2t3.5 -2t3.5 -1.5t3 -1.5l3 -2l3 -2l3 -2t3.5 -1l2 -2l1 1q2 1 3 2q2 0 3.5 1l3 2t3.5 2q1 1 3 2t3.5 2l3 2l3 2l3 2l3 2t3.5 2.5t3.5 2.5t2.5 2q2 1 3.5 2t3 2.5t3 2.5t3.5 2.5t3.5 2.5t3 2.5l3 3t3.5 2.5q1 2 2.5 3
t3.5 3q2 1 3.5 3t3 3.5t3 3.5t3 3.5l3.5 3.5t3 4q2 2 3 4q2 3 3 5l4 6q1 3 3 6q2 4 3 9q1 3 2 7q3 18 -2 33q-1 3 -3 7zM512 681q-98 0 -181.5 -48.5t-132 -132t-48.5 -181.5q0 -85 36 -158.5t99 -124.5q2 13 5 25q5 20 13 40q6 14 13 27q6 10 13 20q7 9 13 17q7 8 14 15
q6 6 13 12q6 6 13 11q6 4 13 9q7 4 13 7q7 4 13.5 7t13.5 6q2 1 4 1l-4 4v0l-2 2q-2 1 -2 2l-6 6q0 1 -2 2q0 1 -1 3l-4 4l-1 2q-3 4 -5 8v1q-2 3 -4 7v0.5v0.5l-0.5 0.5t-0.5 1.5q-2 4 -3 9l-1 1l-2 10v2q-2 5 -2 9v1.5v0.5q-1 5 -1 10q0 25 10 47q5 11 12 20l2 2
q6 8 13 15q6 5 13 10q6 5 13 8t13 6q7 2 13 3q7 2 14 3h11v0q6 0 12 -0.5t12 -2t11 -3.5q6 -1 12 -4l12 -6q6 -4 11 -8q7 -5 12 -11l12 -14q7 -11 11 -22q9 -20 9 -43q0 -4 -1 -10v-0.5v-1.5q-1 -4 -2 -9v-2l-2 -10l-1 -1q-1 -4 -3 -8v-0.5v-1t-0.5 -1l-0.5 -0.5l-4 -8
q0 -1 -1 -1q-1 -4 -4 -8l-0.5 -0.5t-0.5 -1.5v0q-3 -3 -5 -7q-2 -1 -2 -2l-5 -5l-0.5 -0.5l-0.5 -0.5l-2 -2l-2 -2l-4 -4q4 -1 9 -3q6 -3 12 -5q6 -3 11.5 -6.5t11.5 -7t12 -8.5q6 -4 11 -9l12 -10l12 -12l12 -14q6 -8 11 -16q7 -10 12 -20q6 -12 12 -25q7 -18 11 -36
q3 -11 5 -23v-2q63 51 99 124.5t36 158.5q0 98 -48.5 181.5t-132 132t-181.5 48.5z" />
    <glyph glyph-name="155" unicode="&#xe694;" 
d="M450 196l401 402l-132 134l-402 -402zM205 84l203 67l-134 135zM938 677q21 22 23.5 42t-8 36t-35.5 41.5t-41 35.5t-35.5 7.5t-41.5 -24.5l-36 -39l135 -135zM953 511v-568h-880v881h566v63h-629v-1007h1006v631h-63z" />
    <glyph glyph-name="quxiaoguanzhu" unicode="&#xe641;" 
d="M868 68l-49 49l47 47q7 7 0 14l-18 18q-7 7 -14 0l-47 -47l-49 48q-7 7 -14 1l-17 -18q-7 -7 0 -14l48 -49l-47 -47q-7 -7 0 -14l18 -18q7 -7 14 0l48 47l48 -48q7 -7 14 -1l18 18q7 7 0 14zM687 305q-41 27 -87 42q54 28 87 81.5t33 116.5q0 93 -65.5 158.5t-158 65.5
t-158 -65.5t-65.5 -158.5q0 -63 33 -116.5t88 -81.5q-103 -33 -169 -121t-67 -200v-2q1 -9 7.5 -15t15 -6t15 6t7.5 15q0 122 86 208t208 86q90 0 164 -50v0q6 -4 13 -4q9 0 15.5 6.5t6.5 15.5q0 12 -9 19zM318 545q0 75 52.5 127t126.5 52t126.5 -52t52.5 -126.5
t-52.5 -127t-126.5 -52.5t-126.5 52.5t-52.5 126.5v0z" />
    <glyph glyph-name="comiistupian" unicode="&#xe632;" 
d="M337 618q-24 0 -41.5 -17.5t-17.5 -41.5t17.5 -41t41.5 -17t41 17t17 41t-17 41.5t-41 17.5zM960 236v440q0 48 -34.5 82.5t-82.5 34.5h-662q-48 0 -82.5 -34.5t-34.5 -82.5v-584q0 -48 34.5 -82.5t82.5 -34.5h662q48 0 82.5 34.5t34.5 82.5v144v0v0zM921 92
q0 -32 -23 -55t-55 -23h-662q-29 0 -50.5 18.5t-25.5 46.5l6 -6l201 202l133 -133l270 284l206 -206v-128v0v0zM921 275l-207 207l-270 -284l-132 132l-209 -210v556q0 32 23 55t55 23h662q32 0 55 -23t23 -55v-401v0z" />
    <glyph glyph-name="12" unicode="&#xe611;" 
d="M230 384l511 -512l51 51l-460 461l460 461v0l-51 51z" />
    <glyph glyph-name="zuojiantou-copy" unicode="&#xe613;" 
d="M547 859q15 0 26 -10l438 -439q11 -11 11 -26t-11 -26l-438 -439q-11 -10 -26 -10t-26 10.5t-11 25.5t11 26l413 413l-413 413q-11 11 -11 26t11 25.5t26 10.5z" />
    <glyph glyph-name="zhuanfa" unicode="&#xe65f;" 
d="M618 624l278 -244l-284 -247v121v60l-60 -7q-12 -2 -32.5 -5t-72.5 -15.5t-102.5 -28.5t-116 -45t-119.5 -65q16 47 38 87q120 214 403 214h14l53 -1v54v122h1zM565 740v-239q-5 1 -15 1q-81 0 -151 -17.5t-119 -44t-89.5 -66t-66 -76.5t-45 -82t-28.5 -76.5t-15 -66
t-7 -44t-1 -18.5q51 56 124.5 102t142 71t129.5 42t98 23l37 5v-237l417 363l-411 360v0zM28 12v0v0v0z" />
    <glyph glyph-name="faxian" unicode="&#xe608;" 
d="M511 -124q-92 0 -179 33q-96 36 -170 105t-116 162q-41 92 -44.5 192.5t33.5 195.5q29 77 80.5 140.5t118 105t142 63.5t157.5 18.5t159 -32.5q123 -46 208 -144q7 -8 6 -18.5t-9 -17.5t-18.5 -6.5t-17.5 8.5q-76 89 -186 131q-70 26 -144 29t-142 -17t-127.5 -57.5
t-106 -94.5t-73.5 -126q-32 -86 -29.5 -176t40.5 -173q38 -84 104 -146t153 -95q70 -26 143.5 -29t141.5 17t128 57.5t106.5 94.5t72.5 126q43 113 24 232q-1 10 5 18.5t16.5 10.5t19 -4.5t10.5 -16.5q20 -132 -27 -258q-57 -150 -189.5 -239t-289.5 -89zM477 384
q0 14 10.5 24t24.5 10t24.5 -10t10.5 -24t-10.5 -24t-24.5 -10t-24.5 10t-10.5 24zM271 142q-12 0 -19 8q-13 14 -4 30l170 298q5 7 12 11l314 135q17 7 29 -6.5t3 -29.5l-170 -298q-4 -7 -12 -11l-313 -135q-5 -2 -10 -2zM458 445l-127 -224l235 102l128 224zM903 623.5
q0 9.5 7 16.5t16.5 7t16.5 -7t7 -16.5t-7 -16t-16.5 -6.5t-16.5 6.5t-7 16z" />
    <glyph glyph-name="zan1" unicode="&#xe609;" 
d="M672 -88q-61 0 -104.5 6t-61.5 12t-47 20q-67 31 -154 43v-25h-137q-37 0 -61 35q-20 31 -20 74v336q0 42 20 73q24 36 61 36h137v-19q143 49 242 124q57 44 85 88q27 44 21 84q-4 23 13 42q14 17 34 17q25 0 51.5 -13.5t42.5 -42.5q27 -47 13 -120q-14 -69 -64 -160h125
q41 0 62 -33q16 -26 16 -64q0 -60 -31 -97q1 -1 1 -2q11 -20 11 -51q0 -45 -20 -87q-13 -26 -31 -40v-12q0 -41 -20 -84q-20 -40 -49 -52q-8 -39 -44 -63q-38 -25 -91 -25zM309 42q45 -5 80.5 -14t51 -15.5t39.5 -17.5q26 -12 42 -17.5t55 -10.5t95 -5q35 0 61 15t26 44v25
h25q8 0 18 14q14 19 21 49q6 26 3 35q3 -8 14 -8v50q10 0 22 25q15 31 15 64q0 18 -4 26q-2 3 -5 3v50q7 0 16 17q12 24 12 54q0 24 -8 37q-7 10 -20 10h-212l23 38q35 59 55 107t24 79.5t2 50t-9 30.5q-16 29 -48 31v-2q17 -109 -126 -218q-112 -86 -272 -137zM168 472
q-12 0 -21.5 -17.5t-9.5 -41.5v-336q0 -24 9.5 -41.5t21.5 -17.5h87v454h-87z" />
    <glyph glyph-name="zhuanfa1" unicode="&#xe60a;" 
d="M929 834h-224q-14 0 -23.5 -9.5t-9.5 -22.5t9.5 -22.5t23.5 -9.5l141 1l-485 -463q-10 -9 -10 -22t10 -22t23.5 -9t22.5 9l489 466l1 -153q0 -13 9.5 -22.5t23 -9.5t23 9.5t9.5 22.5v226q0 13 -10 22t-23 9v0zM897 63q0 -26 -19 -45t-45 -19l-645 -1q-26 0 -44.5 18.5
t-18.5 44.5l1 644q0 27 19 46t46 19h353v64h-353q-52 0 -90.5 -44t-38.5 -97v-632q0 -53 37 -90t89 -37h632q54 0 98 39t44 90v353h-65v-353v0z" />
    <glyph glyph-name="tongzhiguanbi" unicode="&#xe60c;" 
d="M512 896q-104 0 -198.5 -41t-163 -109.5t-109.5 -163t-41 -198.5t41 -198.5t109.5 -163t163 -109.5t198.5 -41t198.5 41t163 109.5t109.5 163t41 198.5t-41 198.5t-109.5 163t-163 109.5t-198.5 41zM512 -35q-114 0 -210 56.5t-152.5 152.5t-56.5 210t56.5 210
t152.5 152.5t210 56.5t210 -56.5t152.5 -152.5t56.5 -210t-56.5 -210t-152.5 -152.5t-210 -56.5zM725 597v0q-14 14 -33.5 14t-33.5 -14l-146 -146l-146 146q-14 14 -33.5 14t-33.5 -14v0q-14 -14 -14 -33.5t14 -33.5l146 -146l-146 -146q-14 -14 -14 -33.5t14 -33.5v0
q14 -14 33.5 -14t33.5 14l146 146l146 -146q14 -14 33.5 -14t33.5 14v0q14 14 14 33.5t-14 33.5l-146 146l146 146q14 14 14 33.5t-14 33.5z" />
    <glyph glyph-name="shangxiajiantou" unicode="&#xe655;" 
d="M512 230l-287 288l20 20l267 -269l267 269l20 -20z" />
    <glyph glyph-name="kaiguanji" unicode="&#xe624;" 
d="M712 632v0q-10 9 -22 9q-13 0 -22.5 -9.5t-9.5 -22.5q0 -7 2 -12.5t4 -7.5l2 -2q48 -36 75 -89t27 -114q0 -106 -75 -181t-181 -75t-181 75t-75 181q0 61 27 114t75 89v0q9 9 9 22t-9.5 22.5t-22.5 9.5q-6 0 -12 -2.5t-8 -4.5l-3 -2q-56 -45 -88 -109.5t-32 -138.5
q0 -132 94 -226t226 -94t226 94t94 226q0 74 -32 138.5t-88 109.5zM512 348q13 0 22.5 9.5t9.5 22.5v285q0 14 -9.5 23t-22.5 9t-22.5 -9t-9.5 -23v-285q0 -13 9.5 -22.5t22.5 -9.5z" />
    <glyph glyph-name="guanzhu" unicode="&#xe866;" 
d="M744 212q-12 0 -18 12q-72 102 -187 129q-19 6 -19 25q0 8 4.5 14t9.5 8l5 3q53 23 85.5 74.5t32.5 113.5q0 85 -57.5 145.5t-139 60.5t-139 -60.5t-57.5 -145.5q0 -62 32.5 -112.5t85.5 -75.5q2 -1 6 -2.5t10.5 -8t6.5 -14.5t-5.5 -14.5t-11.5 -8.5l-6 -2
q-45 -8 -83 -29t-63 -47.5t-45 -57.5t-31 -59t-18.5 -52.5t-9.5 -37.5t-2 -14h429q2 0 5.5 -1t9 -6t5.5 -14q0 -4 -1.5 -7.5t-3 -5.5t-3.5 -3.5t-4 -2.5t-4 -1t-3 -1h-1h-433q-10 0 -17.5 4.5t-10.5 10t-5 12.5t-2.5 10t-0.5 5v10q14 108 80 193.5t164 122.5
q-51 33 -80.5 87.5t-29.5 119.5q0 102 69.5 174.5t167 72.5t167 -72.5t69.5 -174.5q0 -65 -29.5 -119.5t-80.5 -87.5q32 -16 59.5 -33t45 -31t31.5 -27.5t21.5 -24t12 -18.5t6 -12l1.5 -4q0 -8 -5.5 -14t-14.5 -6zM927 103l-155 -162q-8 -9 -14 -9q-3 0 -7 2t-6 4l-3 3
l-83 98q-4 8 -3.5 17t7.5 14q6 6 14.5 4.5t13.5 -8.5l67 -82l142 147q5 7 13 7t12 -7q7 -6 7.5 -14t-5.5 -14v0z" />
    <glyph glyph-name="shangxiajiantou-copy" unicode="&#xe60b;" 
d="M512 538l287 -288l-20 -20l-267 269l-267 -269l-20 20z" />
    <glyph glyph-name="icon1" unicode="&#xe60f;" 
d="M648 352q57 35 90.5 93.5t33.5 127.5q0 108 -75.5 183.5t-183 75.5t-183.5 -75.5t-76 -183.5q0 -68 33.5 -126.5t89.5 -93.5q-135 -43 -222 -157t-90 -259h82q2 69 29 132q27 65 77.5 115.5t116.5 78.5q67 29 141.5 29t142.5 -29q65 -28 115.5 -78.5t78.5 -115.5
q27 -63 29 -132h82q-4 144 -90 258t-221 157zM388 698.5q52 51.5 125.5 51.5t125 -51.5t51.5 -125t-51.5 -125.5t-125 -52t-125.5 52t-52 125.5t52 125z" />
    <glyph glyph-name="xie" unicode="&#xe610;" 
d="M781 -128v54h162v323h54v-323v-54h-216zM524 -78l-44 24l3 -1l-16 195l270 467l27 46l46 -26l140 -81l47 -27l-296 -514zM783 580l-246 -426v-162l140 81l246 426zM943 842h-862v-916h215v-54h-215h-54v54v916v54h916h54v-54v-215h-54v215zM189 249h215v-54h-215v54z
M189 573h431v-54h-431v54zM189 411h323v-54h-323v54z" />
    <glyph glyph-name="kejian" unicode="&#xe6af;" 
d="M512 701q-80 0 -161 -28.5t-142 -69.5t-109.5 -86.5t-74 -81.5t-25.5 -51q0 -16 25.5 -52t74 -81t109.5 -86.5t142 -69.5t161 -28t161 28t142 69.5t109.5 86.5t74 81t25.5 52t-25.5 52t-74 81t-109.5 86.5t-142 69.5t-161 28zM512 116q-72 0 -145.5 25t-128.5 61.5
t-99 75.5t-67 68t-23 38q0 8 23 37t67 68t99 75.5t128.5 62t145.5 25.5t145.5 -25.5t128.5 -62t99 -75.5t67 -68t23 -37q0 -9 -23 -37.5t-67 -68t-99 -75.5t-128.5 -61.5t-145.5 -25.5zM512 579q-81 0 -138 -57t-57 -138t57 -138t138 -57t138 57t57 138t-57 138t-138 57z
M512 238q-61 0 -103.5 42.5t-42.5 103.5t42.5 103.5t103.5 42.5t103.5 -42.5t42.5 -103.5t-42.5 -103.5t-103.5 -42.5z" />
    <glyph glyph-name="xiaoxixiantiao" unicode="&#xe612;" 
d="M201 -126q-8 0 -15 5q-15 9 -14 26q9 129 12 173q-88 64 -136 157t-48 200q0 93 41 178t109.5 146.5t163.5 98t199 36.5t198.5 -36.5t163 -98t109 -146.5t40.5 -178t-41 -178t-110 -146.5t-164 -98t-199 -36.5q-55 0 -110 10l-185 -108q-6 -4 -14 -4zM513 837
q-124 0 -229 -54t-166 -146.5t-61 -201.5q0 -96 45 -179.5t127 -139.5v0q10 -6 10.5 -26.5t-6.5 -135.5l148 87q10 5 20 3q53 -11 109 -11q124 0 229 54t166.5 146.5t61.5 201.5t-61 201.5t-165.5 146.5t-227.5 54zM277.5 344q-36.5 0 -63 26t-26.5 63t26.5 63t63 26
t62.5 -26t26 -63t-26 -63t-62.5 -26zM277 465q-13 0 -22.5 -9.5t-9.5 -22.5t9.5 -22.5t22.5 -9.5t22.5 9.5t9.5 22.5t-9.5 22.5t-22.5 9.5zM512 344q-37 0 -63 26t-26 63t26 63t63 26t63 -26t26 -63t-26 -63t-63 -26zM512 465q-13 0 -22.5 -9.5t-9.5 -22.5t9.5 -22.5
t22.5 -9.5t22.5 9.5t9.5 22.5t-9.5 22.5t-22.5 9.5zM746.5 344q-36.5 0 -62.5 26t-26 63t26 63t62.5 26t63 -26t26.5 -63t-26.5 -63t-63 -26zM746.5 465q-13.5 0 -22.5 -9.5t-9 -22.5t9 -22.5t22.5 -9.5t23 9.5t9.5 22.5t-9.5 22.5t-23 9.5z" />
    <glyph glyph-name="iconfont-home" unicode="&#xe661;" 
d="M999 376l-490 459l-491 -458q-7 -6 -7 -16t6 -17q7 -8 17 -8t17 7l458 427l458 -428q7 -7 16 -7q11 0 17 8q7 7 6.5 16.5t-7.5 16.5zM849.5 367q-9.5 0 -16.5 -7t-7 -17v-364h-190v253h-254v-254h-189v365q0 10 -7 17t-17 7t-17 -7t-7 -17v-412h286v253h158v-253h285v412
q0 10 -7.5 17t-17 7zM683 707h143v-126q0 -10 7 -17t16 -7q10 0 17 7t7 17v174h-190q-10 0 -17 -7t-7 -17t7 -17t17 -7z" />
  </font>
</defs>
</svg>
